<?xml version="1.0" encoding="UTF-8"?>
<svg width="32px" height="32px" viewBox="0 0 32 32" version="1.1" xmlns="http://www.w3.org/2000/svg">
    <g stroke="none" stroke-width="1" fill="none" fill-rule="evenodd">
        <path d="M16,32 C7.163,32 0,24.837 0,16 C0,7.163 7.163,0 16,0 C24.837,0 32,7.163 32,16 C32,24.837 24.837,32 16,32 Z" fill="#F7931A"/>
        <path d="M23.0813,14.3437 C23.4443,12.0225 21.6337,10.7882 19.1125,9.86625 L19.9787,6.4275 L17.9513,5.92875 L17.1062,9.27 C16.6225,9.15375 16.1275,9.04375 15.6337,8.93375 L16.4837,5.5637 L14.4587,5.065 L13.5925,8.50375 C13.1875,8.40375 12.7887,8.30625 12.4012,8.20375 L12.4037,8.19375 L9.4925,7.4825 L8.955,9.64625 C8.955,9.64625 10.4137,10.0012 10.3812,10.0225 C11.1387,10.2112 11.28,10.7275 11.2587,11.1387 L10.2587,15.1712 C10.3162,15.1862 10.3912,15.2087 10.4762,15.245 L10.2587,15.1987 L8.8925,20.5712 C8.7675,20.8987 8.4387,21.3825 7.7812,21.2112 C7.8025,21.2425 6.3587,20.8362 6.3587,20.8362 L5.4375,23.1512 L8.2012,23.8237 C8.645,23.9425 9.08,24.065 9.5112,24.1812 L8.6325,27.6587 L10.655,28.1575 L11.5212,24.7162 C12.0237,24.8587 12.5112,24.9925 12.9887,25.12 L12.125,28.5362 L14.1525,29.035 L15.0312,25.5762 C18.2525,26.2012 20.6675,25.9487 21.6987,22.9987 C22.5387,20.5762 21.6675,19.1762 19.8925,18.2587 C21.1675,17.9487 22.1387,17.0987 22.3812,15.2712 L22.3837,15.2687 C22.3837,15.2687 22.4087,15.1587 22.4162,15.0712 C22.4325,14.9362 22.4162,14.8037 22.3812,14.6712 C22.1387,14.5362 21.6337,14.4075 21.6337,14.4075 L23.0813,14.3437 Z M18.4587,21.4987 C17.8587,23.9237 14.3587,22.7987 13.2337,22.5112 L14.3587,17.7362 C15.4837,18.0237 19.1112,18.5987 18.4587,21.4987 Z M19.1125,14.3062 C18.5762,16.4987 15.6337,15.5237 14.6837,15.2987 L15.7012,10.9487 C16.6512,11.1737 19.6762,11.5987 19.1125,14.3062 Z" fill="#FFFFFF"/>
    </g>
</svg>
