<?xml version="1.0" encoding="UTF-8"?>
<svg width="32px" height="32px" viewBox="0 0 32 32" version="1.1" xmlns="http://www.w3.org/2000/svg">
    <g stroke="none" stroke-width="1" fill="none" fill-rule="evenodd">
        <circle fill="#9945FF" cx="16" cy="16" r="16"/>
        <path d="M9.52941176,12.4705882 C9.52941176,11.5294118 10.3088235,10.7647059 11.2647059,10.7647059 L20.7352941,10.7647059 C21.6911765,10.7647059 22.4705882,11.5294118 22.4705882,12.4705882 C22.4705882,13.4117647 21.6911765,14.1764706 20.7352941,14.1764706 L11.2647059,14.1764706 C10.3088235,14.1764706 9.52941176,13.4117647 9.52941176,12.4705882 Z M9.52941176,19.5294118 C9.52941176,18.5882353 10.3088235,17.8235294 11.2647059,17.8235294 L20.7352941,17.8235294 C21.6911765,17.8235294 22.4705882,18.5882353 22.4705882,19.5294118 C22.4705882,20.4705882 21.6911765,21.2352941 20.7352941,21.2352941 L11.2647059,21.2352941 C10.3088235,21.2352941 9.52941176,20.4705882 9.52941176,19.5294118 Z" fill="#FFFFFF"/>
    </g>
</svg>
